<?xml version="1.0" standalone="no"?><!DOCTYPE svg PUBLIC "-//W3C//DTD SVG 1.1//EN" "http://www.w3.org/Graphics/SVG/1.1/DTD/svg11.dtd"><svg t="1528769487346" class="icon" style="" viewBox="0 0 1024 1024" version="1.1" xmlns="http://www.w3.org/2000/svg" p-id="2002" xmlns:xlink="http://www.w3.org/1999/xlink" width="200" height="200"><defs><style type="text/css"></style></defs><path d="M730.3936 596.759552c-7.545856-20.568064-19.20512-39.061504-34.93888-55.43936-15.75936-16.375808-35.800064-31.492096-60.146688-45.343744-24.370176-13.862912-53.55008-27.920384-87.56224-42.206208-0.779264-0.315392-1.477632-0.618496-2.244608-0.940032l22.836224-225.987584c10.375168 5.737472 19.216384 13.300736 26.340352 22.868992 17.842176 23.934976 26.750976 57.529344 26.750976 100.784128 29.820928 0 52.794368-7.037952 68.98688-21.111808 16.147456-14.058496 24.244224-32.845824 24.244224-56.373248 0-15.946752-3.996672-31.166464-11.967488-45.647872-7.994368-14.498816-19.949568-27.08992-35.924992-37.797888-15.951872-10.707968-35.695616-19.211264-59.195392-25.521152-10.054656-2.685952-20.913152-4.68992-32.272384-6.223872L587.461632 37.254144l-62.206976-6.281216-12.512256 124.008448c-31.143936 0.893952-59.912192 4.632576-85.947392 11.589632-29.809664 7.98208-55.422976 19.64032-76.831744 34.957312-21.414912 15.322112-37.889024 34.321408-49.455104 56.991744-11.538432 22.680576-17.303552 48.72192-17.303552 78.102528 0 28.131328 3.974144 52.381696 11.961344 72.748032 7.98208 20.373504 19.943424 38.525952 35.8912 54.489088 15.963136 15.958016 36.228096 30.753792 60.792832 44.393472 23.184384 12.890112 50.31936 26.25536 81.176576 40.042496l-25.663488 253.891584c-6.48192-1.856512-12.683264-3.987456-18.340864-6.734848-17.84832-8.589312-32.236544-20.349952-43.15136-35.262464-10.919936-14.8992-18.695168-32.224256-23.293952-51.966976-4.64384-19.733504-6.939648-40.941568-6.939648-63.617024-7.564288 0-16.06656 1.373184-25.503744 4.100096-9.453568 2.725888-18.272256 7.467008-26.46016 14.166016-8.18176 6.721536-15.127552 15.860736-20.790272 27.393024-5.651456 11.554816-8.492032 25.939968-8.492032 43.139072 0 22.687744 5.033984 42.51136 15.116288 59.516928 10.066944 17.016832 24.347648 31.28832 42.830848 42.843136 18.454528 11.541504 40.820736 20.14208 67.062784 25.824256 13.01504 2.803712 26.809344 4.911104 41.31328 6.33344l-12.064768 119.513088 62.184448 6.28736 12.552192-124.094464c31.853568-1.042432 61.320192-4.960256 88.105984-12.12928 31.297536-8.403968 58.0608-21.105664 80.31232-38.112256 22.25152-17.016832 39.46496-38.112256 51.648512-63.294464 12.173312-25.19552 18.2784-54.581248 18.2784-88.194048C741.742592 641.055744 737.963008 617.337856 730.3936 596.759552zM474.384384 421.967872c-20.378624-9.443328-36.962304-19.212288-49.770496-29.283328-12.81536-10.083328-22.148096-21.095424-28.022784-33.068032-5.886976-11.961344-8.817664-26.138624-8.817664-42.510336 0-15.116288 2.295808-28.967936 6.928384-41.55904 4.620288-12.597248 11.869184-23.517184 21.740544-32.75264 9.848832-9.230336 22.560768-16.370688 38.090752-21.4272 14.601216-4.736 32.094208-7.151616 52.278272-7.438336L485.292032 426.949632C481.57696 425.266176 477.842432 423.586816 474.384384 421.967872zM627.7376 738.788352c-6.309888 14.475264-15.424512 26.865664-27.405312 37.149696-11.9552 10.304512-26.763264 18.277376-44.388352 23.933952-13.753344 4.420608-29.236224 7.0656-46.312448 8.041472l23.478272-232.409088c8.129536 3.87072 15.893504 7.63904 22.834176 11.189248 20.557824 10.50112 36.85376 20.785152 48.80896 30.851072 11.978752 10.079232 20.361216 20.8896 25.171968 32.44544 4.832256 11.542528 7.248896 25.30816 7.248896 41.248768C637.185024 708.462592 634.036224 724.299776 627.7376 738.788352z" p-id="2003" fill="#383838"></path></svg>