<?xml version="1.0" standalone="no"?><!DOCTYPE svg PUBLIC "-//W3C//DTD SVG 1.1//EN" "http://www.w3.org/Graphics/SVG/1.1/DTD/svg11.dtd"><svg t="1529378909623" class="icon" style="" viewBox="0 0 1024 1024" version="1.1" xmlns="http://www.w3.org/2000/svg" p-id="3255" xmlns:xlink="http://www.w3.org/1999/xlink" width="200" height="200"><defs><style type="text/css"></style></defs><path d="M829.7 195.5C654.6 20 370 19.8 194.4 195.1c-175.4 175-175.7 459.1-0.8 634.8 175 175.9 459.8 176.3 635.6 0.8 175.5-175.1 175.7-459.5 0.5-635.2zM817 511.7c0 23.6-19.1 42.7-42.7 42.7H554.7V774c0 23.6-19.1 42.7-42.7 42.7s-42.7-19.1-42.7-42.7V554.3H249.7c-23.6 0-42.7-19.1-42.7-42.7s19.1-42.7 42.7-42.7h219.7V249.3c0-23.6 19.1-42.7 42.7-42.7s42.7 19.1 42.7 42.7V469h219.7c23.4 0 42.5 19.1 42.5 42.7z" fill="#f36a6a" p-id="3256"></path></svg>