<?xml version="1.0" standalone="no"?><!DOCTYPE svg PUBLIC "-//W3C//DTD SVG 1.1//EN" "http://www.w3.org/Graphics/SVG/1.1/DTD/svg11.dtd"><svg t="1529391363125" class="icon" style="" viewBox="0 0 1024 1024" version="1.1" xmlns="http://www.w3.org/2000/svg" p-id="4110" xmlns:xlink="http://www.w3.org/1999/xlink" width="200" height="200"><defs><style type="text/css"></style></defs><path d="M693.892741 485.413926l-156.988681 0 0-156.988681-54.465422 0 0 156.988681-156.986785 0 0 51.262578 156.986785 0 0 156.988681 54.465422 0 0-156.988681 156.988681 0L693.892741 485.413926z" p-id="4111" fill="#f36a6a"></path><path d="M504.833896 903.480889c-219.054459 0-397.274074-178.219615-397.274074-397.274074s178.219615-397.274074 397.274074-397.274074 397.274074 178.219615 397.274074 397.274074S723.888356 903.480889 504.833896 903.480889zM504.833896 124.512711c-210.473719 0-381.694104 171.220385-381.694104 381.694104s171.220385 381.694104 381.694104 381.694104c210.473719 0 381.694104-171.220385 381.694104-381.694104S715.307615 124.512711 504.833896 124.512711z" p-id="4112" fill="#f36a6a"></path><path d="M685.831585 481.025896l-154.242844 0 0-154.240948-53.511585 0 0 154.240948-154.240948 0 0 50.36563 154.240948 0 0 154.240948 53.511585 0 0-154.240948 154.242844 0L685.831585 481.025896z" p-id="4113" fill="#f36a6a"></path></svg>