<?xml version="1.0" standalone="no"?><!DOCTYPE svg PUBLIC "-//W3C//DTD SVG 1.1//EN" "http://www.w3.org/Graphics/SVG/1.1/DTD/svg11.dtd"><svg t="1528711490041" class="icon" style="" viewBox="0 0 1024 1024" version="1.1" xmlns="http://www.w3.org/2000/svg" p-id="2223" xmlns:xlink="http://www.w3.org/1999/xlink" width="200" height="200"><defs><style type="text/css"></style></defs><path d="M865.475343 31.619678H158.522851c-69.483457 0-125.812217 58.248771-125.812217 130.094763v698.392817c0 71.847798 56.32876 130.094763 125.812217 130.094763h706.952492c69.483457 0 125.814023-58.245159 125.814023-130.094763V161.714441c0-71.845992-56.330566-130.094763-125.814023-130.094763z m18.638378 762.296862c0 47.90094-37.551303 86.731046-83.875413 86.731046H223.759886c-46.322304 0-83.877219-38.830106-83.87722-86.731046V227.905159c0-47.90094 37.554915-86.72924 83.87722-86.72924h576.478422c46.324111 0 83.875413 38.8283 83.875413 86.72924v566.011381z" p-id="2224"></path></svg>