<?xml version="1.0" standalone="no"?><!DOCTYPE svg PUBLIC "-//W3C//DTD SVG 1.1//EN" "http://www.w3.org/Graphics/SVG/1.1/DTD/svg11.dtd"><svg t="1528770779928" class="icon" style="" viewBox="0 0 1024 1024" version="1.1" xmlns="http://www.w3.org/2000/svg" p-id="9910" xmlns:xlink="http://www.w3.org/1999/xlink" width="200" height="200"><defs><style type="text/css"></style></defs><path d="M212.984267 106.975456v170.774072H811.015733V106.975456H212.984267z m554.854625 127.597231H256.161108V149.507867h512.322215v85.06482zM256.161108 447.879169V320.281938h-43.176841v170.774072h170.774072v-43.176841h-42.532411zM256.161108 661.185651V533.58842h-43.176841v170.774072h170.774072v-43.176841h-42.532411zM256.161108 875.136564v-128.241662h-43.176841v170.774072h170.774072v-42.53241h-42.532411zM469.46759 447.879169V320.281938h-42.532411v170.774072h170.129642v-43.176841h-42.532411zM682.774072 447.879169V320.281938h-42.532411v170.774072H811.015733v-43.176841h-43.176841zM469.46759 661.185651V533.58842h-42.532411v170.774072h170.129642v-43.176841h-42.532411zM469.46759 875.136564v-128.241662h-42.532411v170.774072h170.129642v-42.53241h-42.532411zM682.774072 875.136564v-341.548144h-42.532411v384.080554H811.015733v-42.53241h-43.176841z" fill="" p-id="9911"></path><path d="M896.080554 0H127.919446v1024h768.161108V0zM170.451857 981.46759V42.53241h683.096286v938.93518H170.451857z" fill="" p-id="9912"></path></svg>