<?xml version="1.0" standalone="no"?><!DOCTYPE svg PUBLIC "-//W3C//DTD SVG 1.1//EN" "http://www.w3.org/Graphics/SVG/1.1/DTD/svg11.dtd"><svg t="1529634284390" class="icon" style="" viewBox="0 0 1024 1024" version="1.1" xmlns="http://www.w3.org/2000/svg" p-id="7106" xmlns:xlink="http://www.w3.org/1999/xlink" width="200" height="200"><defs><style type="text/css"></style></defs><path d="M487.808 200c172.032 0 312 139.968 312 312 0 172.032-139.968 312-312 312S175.808 684.032 175.808 512 315.712 200 487.808 200M487.808 96c-229.76 0-416 186.24-416 416 0 229.824 186.24 416 416 416 229.824 0 416-186.176 416-416C903.808 282.24 717.568 96 487.808 96M591.808 668.032c-13.312 0-26.624-5.12-36.8-15.168L451.072 548.8C441.664 539.52 435.84 526.528 435.84 512.192l0 0L435.84 512 435.84 304c0-28.8 23.232-52.032 52.032-52.032S539.904 275.2 539.904 304l0 186.496L628.672 579.2c20.288 20.288 20.288 53.248 0 73.536C618.432 662.912 605.12 668.032 591.808 668.032" p-id="7107" fill="#f36a6a"></path></svg>