<?xml version="1.0" standalone="no"?><!DOCTYPE svg PUBLIC "-//W3C//DTD SVG 1.1//EN" "http://www.w3.org/Graphics/SVG/1.1/DTD/svg11.dtd"><svg t="1528714487861" class="icon" style="" viewBox="0 0 1024 1024" version="1.1" xmlns="http://www.w3.org/2000/svg" p-id="9142" xmlns:xlink="http://www.w3.org/1999/xlink" width="200" height="200"><defs><style type="text/css"></style></defs><path d="M929.980673 164.526147l-97.211019 0L191.230346 164.526147l-97.212042 0c-16.954137 0-30.699186 13.745049-30.699186 30.699186s13.745049 30.699186 30.699186 30.699186l66.512856 0 0 701.954283c0 16.954137 13.745049 30.699186 30.699186 30.699186l641.539308 0c16.954137 0 30.699186-13.745049 30.699186-30.699186L863.46884 225.924519l66.511833 0c16.954137 0 30.699186-13.745049 30.699186-30.699186S946.93481 164.526147 929.980673 164.526147zM802.070468 897.179616 221.929532 897.179616 221.929532 225.924519l580.140936 0L802.070468 897.179616z" p-id="9143"></path><path d="M393.046794 126.140908l237.906411 0c16.954137 0 30.699186-13.745049 30.699186-30.699186s-13.745049-30.699186-30.699186-30.699186L393.046794 64.742537c-16.954137 0-30.699186 13.745049-30.699186 30.699186S376.091634 126.140908 393.046794 126.140908z" p-id="9144"></path><path d="M385.550053 756.577345c16.954137 0 30.699186-13.745049 30.699186-30.699186L416.249239 411.534867c0-16.954137-13.745049-30.699186-30.699186-30.699186s-30.699186 13.745049-30.699186 30.699186l0 314.343291C354.850867 742.832296 368.595916 756.577345 385.550053 756.577345z" p-id="9145"></path><path d="M639.805828 756.577345c16.954137 0 30.699186-13.745049 30.699186-30.699186L670.505014 411.534867c0-16.954137-13.745049-30.699186-30.699186-30.699186s-30.699186 13.745049-30.699186 30.699186l0 314.343291C609.106642 742.832296 622.851691 756.577345 639.805828 756.577345z" p-id="9146"></path></svg>