<?xml version="1.0" standalone="no"?><!DOCTYPE svg PUBLIC "-//W3C//DTD SVG 1.1//EN" "http://www.w3.org/Graphics/SVG/1.1/DTD/svg11.dtd"><svg t="1528708346241" class="icon" style="" viewBox="0 0 1024 1024" version="1.1" xmlns="http://www.w3.org/2000/svg" p-id="748" xmlns:xlink="http://www.w3.org/1999/xlink" width="200" height="200"><defs><style type="text/css"></style></defs><path d="M511.998194 52.548343c-251.752675 0-455.837412 204.086543-455.837412 455.837412 0 83.015653 22.545231 160.614453 61.317538 227.654095 0 0 58.207228 2.077152 63.593375-47.853979-29.092777-53.429778-45.635941-114.680486-45.635941-179.800116 0-207.968109 168.592525-376.560634 376.560634-376.560634 207.969915 0 376.56244 168.592525 376.562439 376.560634 0 207.969915-168.592525 376.56244-376.562439 376.56244-95.650158 0-182.704517-35.954605-249.124626-94.707312 0 0-52.087757-8.086445-64.406174 48.464481 81.733237 77.604219 191.930686 125.519609 313.5308 125.519609 251.752675 0 455.839218-204.086543 455.839218-455.839218 0.003612-251.750869-204.082931-455.837412-455.837412-455.837412zM438.441712 757.024507h22.790878c16.591932 0 30.042848-13.450916 30.042848-30.042848V289.789851c0-16.593738-13.450916-30.042848-30.042848-30.042849H438.441712c-16.591932 0-30.042848 13.450916-30.042848 30.042849v324.64808l-93.686797-93.686798c-12.365378-12.365378-32.414414-12.365378-44.781599 0l-14.926598 14.928404c-12.367185 12.365378-12.367185 32.414414 0 44.777987l154.498594 154.5004c3.500453 12.715785 15.114444 22.066583 28.939248 22.066583z m147.111157 0c16.591932 0 30.042848-13.450916 30.042848-30.042848V402.333579l93.686798 93.688604c12.367185 12.365378 32.416221 12.365378 44.781599 0l14.926597-14.932017c12.365378-12.363572 12.365378-32.414414 0-44.777986l-154.498594-154.500401c-3.498647-12.713979-15.112638-22.064777-28.937442-22.064777h-22.792683c-16.591932 0-30.042848 13.450916-30.042849 30.042849v437.191808c0 16.593738 13.450916 30.042848 30.042849 30.042848h22.790877z" p-id="749"></path></svg>