<?xml version="1.0" standalone="no"?><!DOCTYPE svg PUBLIC "-//W3C//DTD SVG 1.1//EN" "http://www.w3.org/Graphics/SVG/1.1/DTD/svg11.dtd"><svg t="1528708358622" class="icon" style="" viewBox="0 0 1024 1024" version="1.1" xmlns="http://www.w3.org/2000/svg" p-id="860" xmlns:xlink="http://www.w3.org/1999/xlink" width="200" height="200"><defs><style type="text/css"></style></defs><path d="M510.388852 53.623043c-250.742998 0-454.011324 203.268326-454.011324 454.014937 0 82.683308 22.45492 159.969633 61.075505 226.741954 0 0 57.974226 2.066315 63.336892-47.664325-28.975373-53.216644-45.453513-114.2199-45.453513-179.077629 0-207.137248 167.916999-375.054247 375.05244-375.054247 207.137248 0 375.056053 167.918805 375.056053 375.054247s-167.916999 375.05244-375.056053 375.05244c-95.265433 0-181.972998-35.810107-248.125786-94.328005 0 0-51.878235-8.053933-64.147884 48.273021 81.404505 77.291743 191.161237 125.015674 312.275476 125.015674 250.744804 0 454.014937-203.268326 454.014937-454.01313-0.001806-250.744804-203.271938-454.014937-454.016743-454.014937z m-8.771001 701.656656h22.700566c16.241525 0 29.407059-13.165534 29.407059-29.407059V402.010266l92.144286 93.311103a30.868291 30.868291 0 0 0 44.044661 0l14.680952-14.868798c12.163082-12.314804 12.163082-32.284367 0-44.599171l-151.818164-153.738176c-3.247583-12.70856-14.738751-22.118964-28.4606-22.118963h-22.700567c-14.249265 0-26.126965 10.134697-28.827262 23.589226l-156.83223 158.815458c-11.937304 12.089027-11.937304 31.691927 0 43.779148l14.408213 14.592447a30.302944 30.302944 0 0 0 43.231862 0l98.610552-99.858649v324.962362c0.001806 16.237913 13.169146 29.403447 29.410672 29.403446z" p-id="861"></path></svg>