<?xml version="1.0" standalone="no"?><!DOCTYPE svg PUBLIC "-//W3C//DTD SVG 1.1//EN" "http://www.w3.org/Graphics/SVG/1.1/DTD/svg11.dtd"><svg t="1528711482128" class="icon" style="" viewBox="0 0 1024 1024" version="1.1" xmlns="http://www.w3.org/2000/svg" p-id="2110" xmlns:xlink="http://www.w3.org/1999/xlink" width="200" height="200"><defs><style type="text/css"></style></defs><path d="M870.093846 31.619678H164.622454c-69.338959 0-125.548509 58.127755-125.548508 129.82383V858.369675c0 71.697882 56.211356 129.822024 125.548508 129.822024H870.09204c69.338959 0 125.548509-58.124142 125.548508-129.822024V161.445314c0.001806-71.697882-56.207743-129.825636-125.546702-129.825636z" fill="#EA5C5C" p-id="2111"></path><path d="M865.144804 293.006727l-34.101423-32.329522c-28.252885-26.786235-77.080416-23.919764-109.059531 6.404855L426.827721 546.919641l-119.017219-112.838142c-28.251079-26.786235-74.054998-26.786235-102.30427 0l-34.10323 32.329522c-28.251079 26.782622-28.251079 70.211363 0 96.997597L376.013349 757.402007c28.252885 26.782622 74.060417 26.782622 102.309689 0l34.101424-32.333134a70.213169 70.213169 0 0 0 5.507163-5.87202l340.459725-322.78948c31.980922-30.322812 35.006339-76.608992 6.753454-103.400646z" fill="#FFFFFF" p-id="2112"></path></svg>