<?xml version="1.0" standalone="no"?><!DOCTYPE svg PUBLIC "-//W3C//DTD SVG 1.1//EN" "http://www.w3.org/Graphics/SVG/1.1/DTD/svg11.dtd"><svg t="1527845637852" class="icon" style="" viewBox="0 0 1024 1024" version="1.1" xmlns="http://www.w3.org/2000/svg" p-id="8786" xmlns:xlink="http://www.w3.org/1999/xlink" width="200" height="200"><defs><style type="text/css"></style></defs><path d="M694 444.6V245.5c0-100.2-81.5-181.7-181.7-181.7s-181.7 81.5-181.7 181.7v199.1c-66.1 53.2-108.4 134.7-108.4 226 0 160 130.1 290.1 290.1 290.1s290.1-130.1 290.1-290.1c0-91.2-42.4-172.7-108.4-226zM397.4 245.5c0-63.3 51.5-114.9 114.9-114.9 63.3 0 114.9 51.5 114.9 114.9v158.7c-35.2-15.3-74.1-23.7-114.9-23.7-40.8 0-79.6 8.5-114.9 23.7V245.5zM548 731.7c0 19.7-16 35.7-35.7 35.7-19.7 0-35.7-16-35.7-35.7v-114c0-19.7 16-35.7 35.7-35.7 19.7 0 35.7 16 35.7 35.7v114z" p-id="8787" fill="#f36a6a"></path></svg>