<?xml version="1.0" standalone="no"?><!DOCTYPE svg PUBLIC "-//W3C//DTD SVG 1.1//EN" "http://www.w3.org/Graphics/SVG/1.1/DTD/svg11.dtd"><svg t="1529040997934" class="icon" style="" viewBox="0 0 1024 1024" version="1.1" xmlns="http://www.w3.org/2000/svg" p-id="13060" xmlns:xlink="http://www.w3.org/1999/xlink" width="200" height="200"><defs><style type="text/css"></style></defs><path d="M768.1 140.7H665.6c0-42.2-34.6-76.8-76.8-76.8H435.2c-42.2 0-76.8 34.6-76.8 76.8H255.9c-56.3 0-102.4 46.1-102.4 102.4v614.5c0 56.3 46.1 102.4 102.4 102.4H768c56.3 0 102.4-46.1 102.4-102.4V243.1c0.1-56.3-46-102.4-102.3-102.4z m-332.9-25.6h153.6c14.1 0 25.6 11.5 25.6 25.6 0 14.1-11.5 25.6-25.6 25.6H435.2c-14.1 0-25.6-11.5-25.6-25.6 0-14.1 11.5-25.6 25.6-25.6z m128 584.7H358.4c-14.1 0-25.6-11.5-25.6-25.6 0-14.1 11.5-25.6 25.6-25.6h204.8c14.1 0 25.6 11.5 25.6 25.6 0 14.1-11.5 25.6-25.6 25.6zM665.6 576H358.4c-14.1 0-25.6-11.5-25.6-25.6 0-14.1 11.5-25.6 25.6-25.6h307.3c14.1 0 25.6 11.5 25.6 25.6-0.1 14.1-11.6 25.6-25.7 25.6z m25.6-149.3c0 14.1-11.5 25.6-25.6 25.6H358.4c-14.1 0-25.6-11.5-25.6-25.6 0-14.1 11.5-25.6 25.6-25.6h307.3c14-0.1 25.5 11.5 25.5 25.6z" p-id="13061"></path></svg>