<?xml version="1.0" standalone="no"?><!DOCTYPE svg PUBLIC "-//W3C//DTD SVG 1.1//EN" "http://www.w3.org/Graphics/SVG/1.1/DTD/svg11.dtd"><svg t="1528193156067" class="icon" style="" viewBox="0 0 1024 1024" version="1.1" xmlns="http://www.w3.org/2000/svg" p-id="2652" xmlns:xlink="http://www.w3.org/1999/xlink" width="200" height="200"><defs><style type="text/css"></style></defs><path d="M952.647417 752.812601l-393.812227-622.344131c-9.768481-15.639189-27.816532-25.363667-47.003524-25.363667-19.230993 0-37.235043 9.724479-47.046502 25.363667L70.962703 752.812601c-10.425444 16.647145-10.272971 37.232996 0.394996 53.703109 10.031471 15.507182 27.464515 24.750707 46.630017 24.750707l787.6572 0c19.184945 0 36.621059-9.242502 46.608527-24.750707C962.941877 790.045597 963.072861 769.459746 952.647417 752.812601zM575.913147 767.399831l-128.169101-0.084934 0.008186-127.316687 128.033002 0.085958L575.913147 767.399831zM447.871959 576.117296l-0.404206-255.987209 127.635959 0-0.341784 256.167311L447.871959 576.117296z" p-id="2653" fill="#bd8d2a"></path></svg>